<svg width="17" height="16" viewBox="0 0 17 16" fill="none" xmlns="http://www.w3.org/2000/svg">
<path d="M14.1433 3.05526C13.8028 2.7146 13.3985 2.44436 12.9535 2.25999C12.5085 2.07561 12.0316 1.98071 11.5499 1.98071C11.0683 1.98071 10.5913 2.07561 10.1464 2.25999C9.70139 2.44436 9.29711 2.7146 8.9566 3.05526L8.24994 3.76193L7.54327 3.05526C6.85548 2.36747 5.92263 1.98107 4.94994 1.98107C3.97725 1.98107 3.0444 2.36747 2.3566 3.05526C1.66881 3.74306 1.28241 4.67591 1.28241 5.6486C1.28241 6.62129 1.66881 7.55414 2.3566 8.24193L3.06327 8.9486L8.24994 14.1353L13.4366 8.9486L14.1433 8.24193C14.4839 7.90143 14.7542 7.49714 14.9385 7.05217C15.1229 6.60719 15.2178 6.13025 15.2178 5.6486C15.2178 5.16694 15.1229 4.69 14.9385 4.24503C14.7542 3.80005 14.4839 3.39577 14.1433 3.05526Z" stroke="#828FA6" stroke-width="2"/>
</svg>
