<svg width="19" height="23" viewBox="0 0 19 23" fill="none" xmlns="http://www.w3.org/2000/svg">
<path d="M17.7999 9.5C17.7999 12.5983 15.7856 15.6046 13.5772 17.9375C12.4933 19.0824 11.4061 20.0197 10.5888 20.6711C10.2849 20.9132 10.0195 21.1149 9.80682 21.2722C9.59414 21.1149 9.32871 20.9132 9.02487 20.6711C8.20751 20.0197 7.1203 19.0824 6.03649 17.9375C3.82806 15.6046 1.81372 12.5983 1.81372 9.5C1.81372 7.37802 2.65603 5.34311 4.15512 3.84287C5.65417 2.34267 7.68717 1.5 9.80682 1.5C11.9265 1.5 13.9595 2.34267 15.4585 3.84287C16.9576 5.34311 17.7999 7.37802 17.7999 9.5Z" stroke="#EF233C" stroke-width="2"/>
<path d="M9.80678 12.5C11.4624 12.5 12.8045 11.1569 12.8045 9.5C12.8045 7.84315 11.4624 6.5 9.80678 6.5C8.1512 6.5 6.80908 7.84315 6.80908 9.5C6.80908 11.1569 8.1512 12.5 9.80678 12.5Z" stroke="#EF233C" stroke-width="2" stroke-linecap="round" stroke-linejoin="round"/>
</svg>
