<svg width="24" height="24" viewBox="0 0 24 24" fill="none" xmlns="http://www.w3.org/2000/svg">
<path d="M22.574 17.3455L22.5738 20.5322C22.575 20.828 22.5144 21.1208 22.3958 21.3919C22.2773 21.6629 22.1034 21.9062 21.8853 22.1062C21.6673 22.3062 21.4099 22.4585 21.1296 22.5532C20.8493 22.648 20.5523 22.6832 20.2576 22.6566C16.9883 22.3014 13.848 21.1845 11.089 19.3956C8.5221 17.7647 6.34586 15.5888 4.71484 13.0223C2.91949 10.2512 1.80231 7.09617 1.45378 3.81287C1.42725 3.51913 1.46219 3.22308 1.55637 2.94357C1.65054 2.66407 1.8019 2.40722 2.00079 2.1894C2.19969 1.97157 2.44177 1.79753 2.71162 1.67837C2.98147 1.5592 3.27318 1.49751 3.56817 1.49723H6.75546C7.27107 1.49216 7.77091 1.67471 8.16184 2.01085C8.55276 2.34699 8.80808 2.8138 8.88021 3.32425L9.62371 6.30908C9.62371 6.30908 9.79754 7.10246 9.71278 7.49969C9.62802 7.89693 9.43114 8.26155 9.14547 8.55035L7.7961 9.89937C9.30835 12.5587 11.5105 14.7605 14.1703 16.2727L15.5196 14.9237C15.8085 14.6381 16.1732 14.4412 16.5705 14.3565C16.9679 14.2718 17.3811 14.3027 17.7614 14.4457L20.7468 15.1892C20.7468 15.1892 21.7342 15.5219 22.0711 15.9195C22.408 16.3171 22.587 16.8246 22.574 17.3455Z" stroke="#F3252C" stroke-width="2" stroke-linecap="square"/>
</svg>
