<svg width="24" height="26" viewBox="0 0 24 26" fill="none" xmlns="http://www.w3.org/2000/svg">
<g clip-path="url(#clip0)">
<path d="M8 23.4783C8.55228 23.4783 9 23.0111 9 22.4348C9 21.8585 8.55228 21.3914 8 21.3914C7.44772 21.3914 7 21.8585 7 22.4348C7 23.0111 7.44772 23.4783 8 23.4783Z" stroke="#545673" stroke-width="2" stroke-linecap="round" stroke-linejoin="round"/>
<path d="M19 23.4783C19.5523 23.4783 20 23.0111 20 22.4348C20 21.8585 19.5523 21.3914 19 21.3914C18.4477 21.3914 18 21.8585 18 22.4348C18 23.0111 18.4477 23.4783 19 23.4783Z" stroke="#545673" stroke-width="2" stroke-linecap="round" stroke-linejoin="round"/>
<path d="M0 1.56519H4L6.68 15.5374C6.77144 16.0178 7.02191 16.4493 7.38755 16.7565C7.75318 17.0636 8.2107 17.2267 8.68 17.2174H18.4C18.8693 17.2267 19.3268 17.0636 19.6925 16.7565C20.0581 16.4493 20.3086 16.0178 20.4 15.5374L22 6.78258H5" stroke="#545673" stroke-width="2"/>
</g>
<defs>
<clipPath id="clip0">
<rect y="0.521729" width="24" height="25.0435" fill="white"/>
</clipPath>
</defs>
</svg>
