<svg width="22" height="22" viewBox="0 0 22 22" fill="none" xmlns="http://www.w3.org/2000/svg">
<path d="M11.0001 11.3286C13.7616 11.3286 16.0001 9.09004 16.0001 6.32861C16.0001 3.56719 13.7616 1.32861 11.0001 1.32861C8.23871 1.32861 6.00014 3.56719 6.00014 6.32861C6.00014 9.09004 8.23871 11.3286 11.0001 11.3286Z" stroke="#545673" stroke-width="2" stroke-linecap="round" stroke-linejoin="round"/>
<path fill-rule="evenodd" clip-rule="evenodd" d="M2.06273 21.723C2.06267 21.7376 2.06264 21.7522 2.06264 21.7668V21.7669H0.0626373V21.7668C0.0626373 15.5282 4.91976 10.3975 11 10.3975C17.0802 10.3975 21.9373 15.5282 21.9373 21.7668V21.7669H19.9373V21.7668C19.9373 21.7522 19.9373 21.7376 19.9372 21.723L2.06273 21.723ZM2.27517 19.723L19.7248 19.723C18.8322 15.5071 15.2361 12.3975 11 12.3975C6.76379 12.3975 3.16777 15.5071 2.27517 19.723Z" fill="#545673"/>
</svg>
