<svg width="123" height="23" viewBox="0 0 123 23" fill="none" xmlns="http://www.w3.org/2000/svg">
<path d="M4.32589 22.8506C3.95834 22.8506 3.67727 22.7641 3.48268 22.5912C3.30972 22.3966 3.21243 22.1587 3.19081 21.8777L0.985499 1.02456C0.963878 0.765114 1.02874 0.559718 1.18009 0.408375C1.33143 0.235409 1.52602 0.148926 1.76384 0.148926H5.65556C5.97987 0.148926 6.2177 0.235409 6.36904 0.408375C6.54201 0.559718 6.6393 0.754304 6.66092 0.992132L8.05545 15.9752L15.8389 0.992132C16.1416 0.429994 16.574 0.148926 17.1361 0.148926H21.4819C21.6548 0.148926 21.7846 0.202977 21.871 0.31108C21.9792 0.419183 22.0332 0.559718 22.0332 0.732683C22.0332 0.862407 22.0008 0.992131 21.9359 1.12186L10.9094 21.8777C10.5418 22.5263 10.0337 22.8506 9.38512 22.8506H4.32589Z" fill="#1C1C30"/>
<path d="M15.883 22.8506C15.6884 22.8506 15.537 22.7966 15.4289 22.6885C15.3208 22.5587 15.2668 22.4074 15.2668 22.2344C15.2668 22.1263 15.2992 22.0074 15.3641 21.8777L27.396 1.05699C27.7419 0.451615 28.2284 0.148926 28.8554 0.148926H33.8497C34.4767 0.148926 34.8335 0.451615 34.92 1.05699L38.0982 21.8777C38.1414 22.1804 38.0874 22.4182 37.936 22.5912C37.7847 22.7641 37.5901 22.8506 37.3523 22.8506H33.4281C32.866 22.8506 32.5417 22.5912 32.4552 22.0723L31.9039 18.8616H23.2448L21.2989 22.1696C20.9746 22.6236 20.5747 22.8506 20.099 22.8506H15.883ZM31.5796 14.1915L30.3796 5.62976L25.5474 14.1915H31.5796Z" fill="#1C1C30"/>
<path d="M41.0074 22.8506C40.7695 22.8506 40.5858 22.7749 40.456 22.6236C40.3263 22.4722 40.2831 22.2777 40.3263 22.0398L44.8018 0.959702C44.845 0.721874 44.9639 0.527287 45.1585 0.375943C45.3531 0.224598 45.5693 0.148926 45.8071 0.148926H49.3097C49.8286 0.148926 50.1637 0.386753 50.315 0.862408L53.85 11.0782L61.7307 0.862408C61.8388 0.689442 61.9902 0.527287 62.1848 0.375943C62.401 0.224598 62.6604 0.148926 62.9631 0.148926H66.4981C66.7359 0.148926 66.9197 0.224598 67.0494 0.375943C67.1359 0.505667 67.1791 0.635391 67.1791 0.765114C67.1791 0.829977 67.1683 0.894839 67.1467 0.959702L62.6712 22.0398C62.628 22.2777 62.5091 22.4722 62.3145 22.6236C62.1199 22.7749 61.9145 22.8506 61.6983 22.8506H57.7742C57.5363 22.8506 57.3526 22.7749 57.2228 22.6236C57.1147 22.4506 57.0823 22.256 57.1255 22.0398L59.6552 10.0728L54.6932 16.6563C54.477 16.8941 54.2716 17.0779 54.077 17.2076C53.8824 17.3373 53.6554 17.4022 53.396 17.4022H51.7096C51.2555 17.4022 50.942 17.1536 50.7691 16.6563L48.4665 9.78093L45.872 22.0398C45.8288 22.2777 45.7098 22.4722 45.5153 22.6236C45.3207 22.7749 45.1153 22.8506 44.8991 22.8506H41.0074Z" fill="#1C1C30"/>
<path d="M65.4644 22.8506C65.2698 22.8506 65.1184 22.7966 65.0103 22.6885C64.9022 22.5587 64.8482 22.4074 64.8482 22.2344C64.8482 22.1263 64.8806 22.0074 64.9455 21.8777L76.9774 1.05699C77.3233 0.451615 77.8098 0.148926 78.4368 0.148926H83.4311C84.0581 0.148926 84.4149 0.451615 84.5013 1.05699L87.6796 21.8777C87.7228 22.1804 87.6688 22.4182 87.5174 22.5912C87.3661 22.7641 87.1715 22.8506 86.9337 22.8506H83.0095C82.4474 22.8506 82.1231 22.5912 82.0366 22.0723L81.4853 18.8616H72.8262L70.8803 22.1696C70.556 22.6236 70.156 22.8506 69.6804 22.8506H65.4644ZM81.1609 14.1915L79.961 5.62976L75.1288 14.1915H81.1609Z" fill="#1C1C30"/>
<path d="M90.5563 22.8506C90.3185 22.8506 90.1347 22.7749 90.005 22.6236C89.8969 22.4506 89.8644 22.256 89.9077 22.0398L94.3832 0.959702C94.4264 0.721874 94.5453 0.527287 94.7399 0.375943C94.9345 0.224598 95.1399 0.148926 95.3561 0.148926H103.269C104.956 0.148926 106.469 0.429994 107.81 0.992132C109.172 1.53265 110.242 2.34342 111.02 3.42445C111.82 4.50549 112.22 5.79192 112.22 7.28374C112.22 7.78102 112.166 8.35396 112.058 9.00258C111.755 10.7539 111.409 12.4078 111.02 13.9645C110.264 17.0563 109.01 19.3156 107.258 20.7426C105.507 22.1479 102.977 22.8506 99.6694 22.8506H90.5563ZM99.9613 18.1805C101.388 18.1805 102.513 17.8454 103.334 17.1752C104.156 16.4833 104.75 15.3915 105.118 13.8997C105.572 11.9754 105.918 10.3647 106.156 9.06744C106.242 8.46207 106.285 8.05127 106.285 7.83507C106.285 6.79728 105.983 6.04055 105.377 5.5649C104.772 5.06762 103.864 4.81899 102.653 4.81899H99.41L96.556 18.1805H99.9613Z" fill="#1C1C30"/>
<path d="M113.122 22.8506C112.885 22.8506 112.701 22.7749 112.571 22.6236C112.441 22.4506 112.398 22.256 112.441 22.0398L116.949 0.959702C116.993 0.721874 117.111 0.527287 117.306 0.375943C117.501 0.224598 117.706 0.148926 117.922 0.148926H122.3C122.538 0.148926 122.722 0.224598 122.852 0.375943C122.938 0.505667 122.981 0.635391 122.981 0.765114C122.981 0.829977 122.971 0.894839 122.949 0.959702L118.474 22.0398C118.43 22.2777 118.311 22.4722 118.117 22.6236C117.922 22.7749 117.717 22.8506 117.501 22.8506H113.122Z" fill="#1C1C30"/>
</svg>
